<svg width="11" height="12" viewBox="0 0 11 12" fill="none" xmlns="http://www.w3.org/2000/svg">
<path d="M6.34 11.1C5.3 11.1 4.36667 10.8733 3.54 10.42C2.72667 9.95333 2.08667 9.32 1.62 8.52C1.15333 7.70667 0.92 6.78 0.92 5.74C0.92 4.68667 1.15333 3.76 1.62 2.96C2.08667 2.16 2.72667 1.53333 3.54 1.08C4.36667 0.626666 5.3 0.399999 6.34 0.399999C7.23333 0.399999 8.04 0.573333 8.76 0.92C9.48 1.26667 10.0467 1.78667 10.46 2.48L9.4 3.2C9.04 2.66667 8.59333 2.27333 8.06 2.02C7.52667 1.76667 6.94667 1.64 6.32 1.64C5.57333 1.64 4.9 1.81333 4.3 2.16C3.7 2.49333 3.22667 2.96667 2.88 3.58C2.53333 4.19333 2.36 4.91333 2.36 5.74C2.36 6.56667 2.53333 7.28667 2.88 7.9C3.22667 8.51333 3.7 8.99333 4.3 9.34C4.9 9.67333 5.57333 9.84 6.32 9.84C6.94667 9.84 7.52667 9.71333 8.06 9.46C8.59333 9.20667 9.04 8.82 9.4 8.3L10.46 9.02C10.0467 9.7 9.48 10.22 8.76 10.58C8.04 10.9267 7.23333 11.1 6.34 11.1Z" fill="white"/>
</svg>
