<svg width="23" height="23" viewBox="0 0 23 23" fill="none" xmlns="http://www.w3.org/2000/svg">
<path d="M13.6877 10.9732H16.3489H16.9307L16.8432 11.5484L16.3387 14.8635L16.274 15.2883H15.8443H13.6863V22.2038C18.6093 21.1485 22.3066 16.7462 22.3066 11.4732C22.3066 5.40981 17.4224 0.500061 11.4049 0.5L13.6877 10.9732ZM13.6877 10.9732V9.32104C13.6877 8.93906 13.7816 8.62338 13.9649 8.4098C14.1361 8.21036 14.447 8.0281 15.0448 8.0281H16.4829H16.9829V7.5281V4.70613V4.28462L16.5674 4.21333L16.4829 4.70613L16.5673 4.21332L16.5672 4.21329L16.5669 4.21324L16.5658 4.21306L16.5624 4.21248L16.5499 4.21039L16.5037 4.20284C16.4637 4.19642 16.4058 4.18736 16.3328 4.17655C16.1867 4.15494 15.9794 4.12625 15.7324 4.09758C15.2404 4.04049 14.5812 3.98237 13.9303 3.98237C12.5264 3.98237 11.3107 4.41232 10.4455 5.28318C9.58027 6.15419 9.12319 7.40841 9.12319 8.94478V10.9746H6.72711H6.22711V11.4746V14.7897V15.2897H6.72711H9.12034V22.2052C4.19736 21.15 0.5 16.7476 0.5 11.4746C0.5 5.40995 5.38407 0.501424 11.4047 0.5L13.6877 10.9732Z" stroke="white"/>
</svg>
