<svg width="25" height="25" viewBox="0 0 25 25" fill="none" xmlns="http://www.w3.org/2000/svg">
<path d="M17.6622 1.42529H7.14441C3.75062 1.42529 1 4.1764 1 7.5697V18.0875C1 21.4813 3.75111 24.2319 7.1449 24.2319H17.6617C21.0555 24.2319 23.8066 21.4808 23.8066 18.087V7.5697C23.8066 4.17592 21.0555 1.42529 17.6617 1.42529H17.6622Z" stroke="white" stroke-miterlimit="10"/>
<path d="M12.4028 18.5303C15.5518 18.5303 18.1045 15.9775 18.1045 12.8286C18.1045 9.67967 15.5518 7.12695 12.4028 7.12695C9.25389 7.12695 6.70117 9.67967 6.70117 12.8286C6.70117 15.9775 9.25389 18.5303 12.4028 18.5303Z" stroke="white" stroke-miterlimit="10"/>
<path d="M19.1736 7.12714C19.764 7.12714 20.2426 6.6485 20.2426 6.05807C20.2426 5.46765 19.764 4.98901 19.1736 4.98901C18.5831 4.98901 18.1045 5.46765 18.1045 6.05807C18.1045 6.6485 18.5831 7.12714 19.1736 7.12714Z" fill="white"/>
</svg>
