<svg width="50" height="50" viewBox="0 0 50 50" fill="none" xmlns="http://www.w3.org/2000/svg">
<circle cx="25" cy="25" r="25" fill="url(#paint0_linear_683_41)"/>
<path d="M12.6339 17.875C12.6339 17.3953 12.7252 16.9441 12.908 16.5215C13.0907 16.0875 13.342 15.7163 13.6618 15.4079C13.9816 15.0881 14.3528 14.8368 14.7754 14.654C15.2095 14.4599 15.6663 14.3628 16.1461 14.3628H29.4753C29.955 14.3628 30.4062 14.4599 30.8288 14.654C31.2628 14.8368 31.6397 15.0881 31.9595 15.4079C32.2793 15.7163 32.5306 16.0875 32.7134 16.5215C32.8961 16.9441 32.9875 17.3953 32.9875 17.875V21.0445H29.4753V17.875H16.1461V35.4188H29.4753V29.4567H22.8107V25.9445H32.9875V35.4188C32.9875 35.8985 32.8961 36.3554 32.7134 36.7894C32.5306 37.2121 32.2793 37.5833 31.9595 37.9031C31.6397 38.2229 31.2628 38.4742 30.8288 38.6569C30.4062 38.8397 29.955 38.931 29.4753 38.931H16.1461C15.6663 38.931 15.2095 38.8397 14.7754 38.6569C14.3528 38.4742 13.9816 38.2229 13.6618 37.9031C13.342 37.5833 13.0907 37.2121 12.908 36.7894C12.7252 36.3554 12.6339 35.8985 12.6339 35.4188V17.875Z" fill="white"/>
<path d="M22.6633 33.4827V11.3712H34.7676C38.3449 11.3712 40.1335 13.165 40.1335 16.7526V19.8982C40.1335 23.4858 38.3449 25.2795 34.7676 25.2795H25.8243V33.4827H22.6633ZM25.8243 22.1186H34.598C35.4409 22.1186 36.0474 21.9335 36.4175 21.5635C36.7875 21.1934 36.9726 20.5869 36.9726 19.744V16.9068C36.9726 16.0639 36.7875 15.4574 36.4175 15.0873C36.0474 14.7173 35.4409 14.5322 34.598 14.5322H25.8243V22.1186Z" fill="white"/>
<defs>
<linearGradient id="paint0_linear_683_41" x1="44.8276" y1="-2.15517" x2="7.32758" y2="50" gradientUnits="userSpaceOnUse">
<stop/>
<stop offset="1" stop-color="#7E7E7E" stop-opacity="0.24"/>
</linearGradient>
</defs>
</svg>
