<svg width="63" height="81" viewBox="0 0 63 81" fill="none" xmlns="http://www.w3.org/2000/svg">
<path d="M57.242 31.4831C57.242 24.6514 54.5281 18.0995 49.6973 13.2688C44.8666 8.43807 38.3148 5.7242 31.4831 5.7242C24.6514 5.7242 18.0995 8.43807 13.2688 13.2688C8.43807 18.0995 5.7242 24.6514 5.7242 31.4831C5.7242 42.0499 14.1788 55.8224 31.4831 72.3195C48.7873 55.8224 57.242 42.0499 57.242 31.4831ZM31.4831 80.1387C10.4924 61.06 0 44.8376 0 31.4831C0 23.1332 3.31696 15.1254 9.22118 9.22118C15.1254 3.31696 23.1332 0 31.4831 0C39.8329 0 47.8408 3.31696 53.745 9.22118C59.6492 15.1254 62.9661 23.1332 62.9661 31.4831C62.9661 44.8376 52.4737 61.06 31.4831 80.1387Z" fill="white"/>
<path d="M33.4955 34.6804V40.7177C33.4955 40.9845 33.6015 41.2404 33.7902 41.4291C33.9789 41.6178 34.2348 41.7239 34.5017 41.7239H40.5389C40.8058 41.7239 41.0617 41.6178 41.2504 41.4291C41.4391 41.2404 41.5451 40.9845 41.5451 40.7177V34.6804C41.5451 34.4136 41.4391 34.1576 41.2504 33.9689C41.0617 33.7802 40.8058 33.6742 40.5389 33.6742H34.5017C34.2348 33.6742 33.9789 33.7802 33.7902 33.9689C33.6015 34.1576 33.4955 34.4136 33.4955 34.6804ZM35.5079 39.7114V35.6866H39.5327V39.7114H35.5079ZM21.421 15.5625C21.2735 15.5626 21.1279 15.595 20.9943 15.6576C20.8608 15.7202 20.7426 15.8114 20.6483 15.9247L15.6172 21.962C15.4665 22.1427 15.3839 22.3706 15.3838 22.6059V25.6246C15.3838 27.4116 16.1606 29.0195 17.3962 30.1243V46.7549C17.3962 47.0218 17.5022 47.2777 17.6909 47.4664C17.8796 47.6551 18.1355 47.7611 18.4024 47.7611H44.5638C44.8306 47.7611 45.0866 47.6551 45.2753 47.4664C45.464 47.2777 45.57 47.0218 45.57 46.7549V30.1243C46.8056 29.0175 47.5824 27.4116 47.5824 25.6246V22.5697C47.5824 22.3886 47.5824 22.2437 47.3489 21.962L42.3179 15.9247C42.2235 15.8114 42.1054 15.7202 41.9718 15.6576C41.8383 15.595 41.6926 15.5626 41.5451 15.5625H21.421ZM21.421 29.6494C20.3536 29.6494 19.3298 29.2253 18.575 28.4705C17.8202 27.7157 17.3962 26.692 17.3962 25.6246V23.6121H25.4459V25.6246C25.4459 26.692 25.0218 27.7157 24.267 28.4705C23.5122 29.2253 22.4885 29.6494 21.421 29.6494ZM31.4831 29.6494C30.4156 29.6494 29.3919 29.2253 28.6371 28.4705C27.8823 27.7157 27.4583 26.692 27.4583 25.6246V23.6121H35.5079V25.6246C35.5079 26.692 35.0839 27.7157 34.3291 28.4705C33.5743 29.2253 32.5505 29.6494 31.4831 29.6494ZM41.5451 29.6494C40.4777 29.6494 39.454 29.2253 38.6992 28.4705C37.9444 27.7157 37.5203 26.692 37.5203 25.6246V23.6121H45.57V25.6246C45.57 26.692 45.1459 27.7157 44.3911 28.4705C43.6363 29.2253 42.6126 29.6494 41.5451 29.6494ZM21.421 45.7487H19.4086V31.3197C20.677 31.7693 22.0594 31.7818 23.3357 31.3551C24.612 30.9284 25.709 30.0872 26.4521 28.9652C27.0028 29.7951 27.7505 30.4758 28.6284 30.9464C29.5063 31.4169 30.487 31.6627 31.4831 31.6618C32.4793 31.6625 33.4602 31.4164 34.3381 30.9455C35.2161 30.4746 35.9636 29.7935 36.5141 28.9632C37.2572 30.0852 38.3541 30.9264 39.6305 31.3531C40.9068 31.7797 42.2891 31.7673 43.5576 31.3177V45.7487H31.4831V34.6804C31.4831 34.4136 31.3771 34.1576 31.1884 33.9689C30.9997 33.7802 30.7437 33.6742 30.4769 33.6742H22.4272C22.1604 33.6742 21.9044 33.7802 21.7157 33.9689C21.527 34.1576 21.421 34.4136 21.421 34.6804V45.7487ZM25.7276 21.5997H18.5393L21.8919 17.5749H27.0679L25.7276 21.5997ZM35.1175 21.5997H27.8487L29.1889 17.5749H33.7772L35.1175 21.5997ZM37.2386 21.5997L35.8983 17.5749H41.0742L44.4289 21.5997H37.2386ZM23.4334 45.7487V35.6866H29.4707V45.7487H23.4334Z" fill="white"/>
</svg>
