<svg width="86" height="81" viewBox="0 0 86 81" fill="none" xmlns="http://www.w3.org/2000/svg">
<path d="M85.3673 24.1043C85.3673 21.1578 82.9785 18.7688 80.032 18.7688H70.9244C73.2813 16.4439 74.7899 13.3961 74.7899 9.64252C74.7899 5.02067 72.1355 0 64.6845 0C54.8806 0 46.6907 10.4388 42.8425 16.2905C38.9916 10.4402 30.5509 0.00133377 20.7483 0.00133377C13.2973 0.00133377 10.6429 5.02201 10.6429 9.64385C10.6429 13.396 12.1929 16.4452 14.5978 18.7702H5.33547C2.38895 18.7702 0 21.1591 0 24.1056V40.076H5.38215V74.8032C5.38215 77.7497 7.77102 80.1387 10.7176 80.1387H74.7165C77.663 80.1387 80.052 77.7497 80.052 74.8032V40.0747H85.3675V24.1043H85.3673ZM64.6845 5.3368C67.9832 5.3368 69.4544 6.72277 69.4544 9.64394C69.4544 15.5703 62.8398 18.7675 56.6186 18.7675H47.587C51.3778 13.1372 58.0499 5.3368 64.6845 5.3368ZM20.7482 5.33688C27.3842 5.33688 34.3082 13.1373 38.0991 18.7662H29.0648C22.8436 18.7662 15.9782 15.4863 15.9782 9.5599C15.9782 6.64007 17.4495 5.33688 20.7482 5.33688ZM80.0319 34.7392H45.3514V24.1043H80.0319V34.7392ZM5.33538 24.1043H40.0159V34.7392H5.33538V24.1043ZM10.7175 40.0747H40.0159V74.8019H10.7175V40.0747ZM74.7178 74.8019H45.3514V40.0747H74.7178V74.8019Z" fill="white"/>
</svg>
