<svg width="75" height="81" viewBox="0 0 75 81" fill="none" xmlns="http://www.w3.org/2000/svg">
<path d="M37.4275 2.31534C37.9363 1.67869 38.5663 1.14928 39.281 0.757751C39.9958 0.366225 40.7812 0.120359 41.5916 0.0343865C42.402 -0.0515862 43.2215 0.0240413 44.0025 0.256892C44.7835 0.489742 45.5106 0.87519 46.1416 1.39093L66.2445 17.8085C67.3501 18.7112 68.108 19.9696 68.389 21.3689C68.67 22.7682 68.4566 24.2217 67.7852 25.4812C66.0277 24.944 64.1998 24.6719 62.362 24.6738H60.5132L62.3497 22.5785L51.762 13.9321L43.0294 24.68H35.0856L46.9859 10.0373L42.2406 6.1609L27.4623 24.6738H19.5739L37.4275 2.31534ZM53.1179 55.4876C52.3006 55.4876 51.5169 55.8123 50.939 56.3902C50.3611 56.968 50.0365 57.7518 50.0365 58.569C50.0365 59.3863 50.3611 60.17 50.939 60.7479C51.5169 61.3258 52.3006 61.6504 53.1179 61.6504H59.2806C60.0978 61.6504 60.8816 61.3258 61.4595 60.7479C62.0373 60.17 62.362 59.3863 62.362 58.569C62.362 57.7518 62.0373 56.968 61.4595 56.3902C60.8816 55.8123 60.0978 55.4876 59.2806 55.4876H53.1179ZM6.89714 27.7552C6.89714 26.938 7.22178 26.1542 7.79965 25.5764C8.37752 24.9985 9.16128 24.6738 9.97852 24.6738H13.4173L18.3167 18.5111H9.97852C7.52682 18.5111 5.17554 19.485 3.44192 21.2186C1.70831 22.9522 0.734375 25.3035 0.734375 27.7552V64.7318C0.734375 68.818 2.3576 72.7368 5.24695 75.6261C8.13631 78.5155 12.0551 80.1387 16.1413 80.1387H62.362C65.6309 80.1387 68.766 78.8401 71.0775 76.5286C73.3889 74.2171 74.6875 71.0821 74.6875 67.8132V43.1621C74.6875 39.8932 73.3889 36.7581 71.0775 34.4467C68.766 32.1352 65.6309 30.8366 62.362 30.8366H9.97852C9.16128 30.8366 8.37752 30.512 7.79965 29.9341C7.22178 29.3562 6.89714 28.5725 6.89714 27.7552ZM6.89714 64.7318V36.4755C7.85853 36.8145 8.90003 36.9994 9.97852 36.9994H62.362C63.9965 36.9994 65.564 37.6487 66.7197 38.8044C67.8755 39.9601 68.5247 41.5277 68.5247 43.1621V67.8132C68.5247 69.4476 67.8755 71.0152 66.7197 72.1709C65.564 73.3266 63.9965 73.9759 62.362 73.9759H16.1413C13.6896 73.9759 11.3383 73.002 9.60468 71.2684C7.87107 69.5348 6.89714 67.1835 6.89714 64.7318Z" fill="white"/>
</svg>
