<svg width="119" height="21" viewBox="0 0 119 21" fill="none" xmlns="http://www.w3.org/2000/svg">
<path d="M10.0245 1.46353C10.1741 1.00287 10.8259 1.00287 10.9755 1.46353L12.7451 6.90983C12.8121 7.11584 13.0041 7.25532 13.2207 7.25532H18.9473C19.4316 7.25532 19.633 7.87513 19.2411 8.15983L14.6082 11.5258C14.433 11.6532 14.3597 11.8788 14.4266 12.0848L16.1962 17.5312C16.3459 17.9918 15.8187 18.3749 15.4268 18.0902L10.7939 14.7242C10.6186 14.5968 10.3814 14.5968 10.2061 14.7242L5.5732 18.0902C5.18135 18.3749 4.65411 17.9918 4.80378 17.5312L6.57339 12.0848C6.64033 11.8788 6.567 11.6532 6.39176 11.5258L1.75886 8.15983C1.367 7.87513 1.56839 7.25532 2.05275 7.25532H7.77933C7.99594 7.25532 8.18792 7.11584 8.25486 6.90983L10.0245 1.46353Z" fill="#DBBD1D"/>
<path d="M34.5267 1.39054C34.6805 0.938701 35.3195 0.9387 35.4733 1.39054L37.3543 6.91644C37.4233 7.11907 37.6136 7.25532 37.8276 7.25532H43.8633C44.3533 7.25532 44.5508 7.88696 44.1482 8.16618L39.3059 11.5244C39.1225 11.6516 39.0456 11.8851 39.1175 12.0964L40.9765 17.5576C41.1319 18.0142 40.6145 18.4044 40.2182 18.1295L35.2849 14.7083C35.1136 14.5894 34.8864 14.5894 34.7151 14.7083L29.7818 18.1295C29.3855 18.4044 28.8681 18.0142 29.0235 17.5576L30.8825 12.0964C30.9544 11.8851 30.8775 11.6516 30.6941 11.5244L25.8518 8.16618C25.4491 7.88696 25.6467 7.25532 26.1367 7.25532H32.1724C32.3864 7.25532 32.5767 7.11907 32.6457 6.91644L34.5267 1.39054Z" fill="#DBBD1D"/>
<path d="M59.0245 1.46353C59.1741 1.00287 59.8259 1.00287 59.9755 1.46353L61.7451 6.90983C61.8121 7.11584 62.0041 7.25532 62.2207 7.25532H67.9473C68.4316 7.25532 68.633 7.87513 68.2411 8.15983L63.6082 11.5258C63.433 11.6532 63.3597 11.8788 63.4266 12.0848L65.1962 17.5312C65.3459 17.9918 64.8187 18.3749 64.4268 18.0902L59.7939 14.7242C59.6186 14.5968 59.3814 14.5968 59.2061 14.7242L54.5732 18.0902C54.1813 18.3749 53.6541 17.9918 53.8038 17.5312L55.5734 12.0848C55.6403 11.8788 55.567 11.6532 55.3918 11.5258L50.7589 8.15983C50.367 7.87513 50.5684 7.25532 51.0527 7.25532H56.7793C56.9959 7.25532 57.1879 7.11584 57.2549 6.90983L59.0245 1.46353Z" fill="#DBBD1D"/>
<path d="M83.5267 1.39054C83.6805 0.938701 84.3195 0.9387 84.4733 1.39054L86.3543 6.91644C86.4233 7.11907 86.6136 7.25532 86.8276 7.25532H92.8633C93.3533 7.25532 93.5508 7.88696 93.1482 8.16618L88.3059 11.5244C88.1225 11.6516 88.0456 11.8851 88.1175 12.0964L89.9765 17.5576C90.1319 18.0142 89.6145 18.4044 89.2182 18.1295L84.2849 14.7083C84.1136 14.5894 83.8864 14.5894 83.7151 14.7083L78.7818 18.1295C78.3855 18.4044 77.8681 18.0142 78.0235 17.5576L79.8825 12.0964C79.9544 11.8851 79.8775 11.6516 79.6941 11.5244L74.8518 8.16618C74.4491 7.88696 74.6467 7.25532 75.1367 7.25532H81.1724C81.3864 7.25532 81.5767 7.11907 81.6457 6.91644L83.5267 1.39054Z" fill="#DBBD1D"/>
<path d="M108.024 1.46353C108.174 1.00287 108.826 1.00287 108.976 1.46353L110.745 6.90983C110.812 7.11584 111.004 7.25532 111.221 7.25532H116.947C117.432 7.25532 117.633 7.87513 117.241 8.15983L112.608 11.5258C112.433 11.6532 112.36 11.8788 112.427 12.0848L114.196 17.5312C114.346 17.9918 113.819 18.3749 113.427 18.0902L108.794 14.7242C108.619 14.5968 108.381 14.5968 108.206 14.7242L103.573 18.0902C103.181 18.3749 102.654 17.9918 102.804 17.5312L104.573 12.0848C104.64 11.8788 104.567 11.6532 104.392 11.5258L99.7589 8.15983C99.367 7.87513 99.5684 7.25532 100.053 7.25532H105.779C105.996 7.25532 106.188 7.11584 106.255 6.90983L108.024 1.46353Z" fill="#DBBD1D"/>
</svg>
