<svg width="92" height="73" viewBox="0 0 92 73" fill="none" xmlns="http://www.w3.org/2000/svg">
<path d="M85.1626 16.8019C85.1626 12.4655 84.9071 11.1423 84.1865 9.79294C83.6789 8.82632 82.8882 8.03784 81.9201 7.53303C80.5772 6.81248 79.254 6.55701 74.9176 6.55701H16.8019C12.4655 6.55701 11.1423 6.81248 9.79294 7.53303C8.82632 8.04064 8.03784 8.83141 7.53303 9.79949C6.81248 11.1423 6.55701 12.4655 6.55701 16.8019V55.2663C6.55701 59.6027 6.81248 60.9258 7.53303 62.2752C8.04064 63.2419 8.83141 64.0303 9.79949 64.5351C11.1423 65.2557 12.4655 65.5112 16.8019 65.5112H74.9176C79.254 65.5112 80.5772 65.2557 81.9266 64.5351C82.8932 64.0275 83.6817 63.2368 84.1865 62.2687C84.9071 60.9259 85.1626 59.6027 85.1626 55.2663V16.8019ZM91.713 16.8019V55.2663C91.713 61.1093 91.1038 63.2251 89.964 65.354C88.8243 67.496 87.1473 69.1729 85.0119 70.3127C82.8764 71.4524 80.7541 72.0616 74.9242 72.0616H16.7954C10.9524 72.0616 8.83657 71.4524 6.70767 70.3127C4.59524 69.197 2.86743 67.4715 1.74897 65.3605C0.609193 63.2251 0 61.1027 0 55.2728V16.7954C0 10.9524 0.609193 8.83657 1.74897 6.70767C2.88875 4.56567 4.56567 2.88875 6.70112 1.74897C8.83657 0.609193 10.9589 0 16.7888 0H74.9111C80.7541 0 82.8699 0.609193 84.9988 1.74897C87.1408 2.88875 88.8177 4.56567 89.9575 6.70112C91.0973 8.83657 91.7065 10.9589 91.7065 16.7888L91.713 16.8019Z" fill="white"/>
<path d="M0.0078125 16.3826H91.7143V22.933H0.0078125V16.3826ZM0.0078125 29.4835H91.7143V36.034H0.0078125V29.4835ZM13.1087 49.1349H39.3106V55.6853H13.1087V49.1349Z" fill="white"/>
</svg>
