<svg width="23" height="23" viewBox="0 0 23 23" fill="none" xmlns="http://www.w3.org/2000/svg">
<path d="M11.6954 1C9.83755 1.00199 8.01216 1.48725 6.39874 2.40806C4.78532 3.32887 3.43943 4.65353 2.49338 6.2518C1.54734 7.85007 1.03371 9.66692 1.00301 11.5237C0.972311 13.3805 1.42559 15.2133 2.31828 16.842L1 22.3812L6.54173 21.0635C7.97107 21.8473 9.56073 22.294 11.1892 22.3697C12.8178 22.4453 14.442 22.1479 15.9379 21.5C17.4338 20.8522 18.7618 19.8711 19.8202 18.6317C20.8787 17.3924 21.6398 15.9276 22.0452 14.3492C22.4506 12.7709 22.4897 11.1208 22.1595 9.52503C21.8292 7.92928 21.1384 6.4301 20.1398 5.14206C19.1412 3.85403 17.8612 2.81122 16.3976 2.09333C14.9341 1.37544 13.3257 1.00147 11.6954 1ZM6.34772 5.85801H9.26285C9.39479 5.85801 9.52132 5.9104 9.61461 6.00365C9.7079 6.0969 9.76031 6.22337 9.76031 6.35525C9.744 7.01837 9.85546 7.67843 10.0886 8.29945C10.1891 8.50734 10.2111 8.74444 10.1508 8.96728C10.0905 9.19012 9.95188 9.38376 9.76031 9.51271L8.74052 10.5072C9.19269 11.3898 9.78393 12.194 10.4916 12.889C11.1812 13.6078 11.9825 14.2106 12.8645 14.674L13.8594 13.6547C14.3569 13.1575 14.5857 13.1575 15.0732 13.3265C15.6945 13.5596 16.3549 13.671 17.0183 13.6547C17.1483 13.6608 17.2713 13.7151 17.3633 13.8071C17.4553 13.899 17.5097 14.022 17.5158 14.1519V17.0657C17.5097 17.1957 17.4553 17.3187 17.3633 17.4106C17.2713 17.5026 17.1483 17.5569 17.0183 17.563C14.092 17.4356 11.3182 16.223 9.23798 14.1619C7.1727 12.0848 5.95902 9.31092 5.83534 6.38508C5.83652 6.24822 5.89043 6.11707 5.98586 6.01891C6.08128 5.92075 6.21088 5.86312 6.34772 5.85801Z" stroke="white" stroke-linecap="round" stroke-linejoin="round"/>
</svg>
